<svg xmlns="http://www.w3.org/2000/svg" width="11.143" height="10.648" viewBox="0 0 11.143 10.648">
  <defs>
    <style>
      .cls-1 {
        fill: #fff;
      }
    </style>
  </defs>
  <path id="linkedin" class="cls-1" d="M-1724.907,4228.4a1.149,1.149,0,0,1-.366.885,1.369,1.369,0,0,1-.983.356h-.015a1.31,1.31,0,0,1-.957-.356,1.19,1.19,0,0,1-.363-.885,1.166,1.166,0,0,1,.374-.888,1.361,1.361,0,0,1,.975-.352,1.323,1.323,0,0,1,.965.352A1.207,1.207,0,0,1-1724.907,4228.4Zm-.152,2.22v7.189h-2.394v-7.189Zm8.611,3.069v4.12h-2.387v-3.845a2.1,2.1,0,0,0-.294-1.193,1.029,1.029,0,0,0-.917-.432,1.177,1.177,0,0,0-.766.251,1.539,1.539,0,0,0-.46.62,1.761,1.761,0,0,0-.08.588v4.011h-2.387q.015-2.894.015-4.693t-.007-2.148l-.008-.348h2.387v1.045h-.015a3.035,3.035,0,0,1,.3-.406,3.077,3.077,0,0,1,.41-.378,1.894,1.894,0,0,1,.631-.315,2.884,2.884,0,0,1,.831-.113,2.579,2.579,0,0,1,1.995.824A3.455,3.455,0,0,1-1716.448,4233.692Z" transform="translate(1727.591 -4227.163)"/>
</svg>
