<svg xmlns="http://www.w3.org/2000/svg" width="11.143" height="11.144" viewBox="0 0 11.143 11.144">
  <defs>
    <style>
      .cls-1 {
        fill: #fff;
      }
    </style>
  </defs>
  <path id="instagram" class="cls-1" d="M-1764.375,4230.29q.036.637.036,2.3t-.036,2.3a3.4,3.4,0,0,1-.9,2.336,3.4,3.4,0,0,1-2.335.9q-.639.036-2.3.037t-2.3-.037a3.4,3.4,0,0,1-2.336-.9,3.4,3.4,0,0,1-.9-2.336q-.038-.639-.037-2.3t.037-2.3a3.4,3.4,0,0,1,.9-2.336,3.4,3.4,0,0,1,2.336-.9q.639-.037,2.3-.036t2.3.036a3.4,3.4,0,0,1,2.335.9,3.4,3.4,0,0,1,.9,2.336Zm-4.98-2.275-.555,0-.555,0q-.5,0-.765,0c-.175,0-.408.01-.7.022a5.822,5.822,0,0,0-.747.072,2.805,2.805,0,0,0-.518.135,1.852,1.852,0,0,0-.639.421,1.87,1.87,0,0,0-.421.638,2.986,2.986,0,0,0-.134.518,5.821,5.821,0,0,0-.072.748c-.012.292-.02.526-.022.7s0,.429,0,.765,0,.521,0,.555,0,.219,0,.555,0,.591,0,.765.01.408.022.7a5.786,5.786,0,0,0,.072.747,2.982,2.982,0,0,0,.134.519,1.884,1.884,0,0,0,.421.639,1.887,1.887,0,0,0,.639.421,2.98,2.98,0,0,0,.518.134,5.813,5.813,0,0,0,.747.072c.293.012.526.02.7.022s.429,0,.765,0l.555,0,.555,0q.5,0,.765,0c.174,0,.408-.01.7-.022a5.782,5.782,0,0,0,.747-.072,2.971,2.971,0,0,0,.519-.134,1.886,1.886,0,0,0,.639-.421,1.9,1.9,0,0,0,.42-.639,2.9,2.9,0,0,0,.134-.519,5.58,5.58,0,0,0,.073-.747c.012-.292.019-.526.022-.7s0-.429,0-.765,0-.521,0-.555,0-.219,0-.555,0-.591,0-.765-.01-.408-.022-.7a5.613,5.613,0,0,0-.073-.748,2.9,2.9,0,0,0-.134-.518,1.886,1.886,0,0,0-.42-.638,1.851,1.851,0,0,0-.639-.421,2.8,2.8,0,0,0-.519-.135,5.791,5.791,0,0,0-.747-.072c-.292-.012-.526-.019-.7-.022S-1769.019,4228.013-1769.355,4228.015Zm1.469,2.55a2.756,2.756,0,0,1,.834,2.024,2.756,2.756,0,0,1-.834,2.024,2.756,2.756,0,0,1-2.024.834,2.756,2.756,0,0,1-2.024-.834,2.756,2.756,0,0,1-.834-2.024,2.756,2.756,0,0,1,.834-2.024,2.756,2.756,0,0,1,2.024-.834A2.756,2.756,0,0,1-1767.886,4230.565Zm-.711,3.337a1.786,1.786,0,0,0,.544-1.313,1.79,1.79,0,0,0-.544-1.313,1.79,1.79,0,0,0-1.313-.544,1.789,1.789,0,0,0-1.313.544,1.79,1.79,0,0,0-.544,1.313,1.785,1.785,0,0,0,.544,1.313,1.787,1.787,0,0,0,1.313.544A1.788,1.788,0,0,0-1768.6,4233.9Zm2.133-4.759a.647.647,0,0,1,.2.472.642.642,0,0,1-.2.471.643.643,0,0,1-.472.2.64.64,0,0,1-.471-.2.639.639,0,0,1-.2-.471.643.643,0,0,1,.2-.472.643.643,0,0,1,.471-.2A.647.647,0,0,1-1766.464,4229.143Z" transform="translate(1775.482 -4227.018)"/>
</svg>
