<svg xmlns="http://www.w3.org/2000/svg" width="12" height="9" viewBox="0 0 12 9">
  <path id="Path_8639" data-name="Path 8639" d="M28.766,136.276h-11a.477.477,0,0,0-.5.45v8.1a.476.476,0,0,0,.5.45h11a.477.477,0,0,0,.5-.45v-8.1A.477.477,0,0,0,28.766,136.276Zm-7.4,5.944-1.25,1.125a.54.54,0,0,1-.706,0,.419.419,0,0,1,0-.637l1.25-1.125Zm5.75,1.125a.541.541,0,0,1-.707,0l-1.25-1.125.707-.637,1.25,1.125A.419.419,0,0,1,27.12,143.345Zm0-4.5-3.5,3.15a.541.541,0,0,1-.707,0l-3.5-3.15a.419.419,0,0,1,0-.637.54.54,0,0,1,.707,0l3.147,2.832,3.147-2.832a.54.54,0,0,1,.707,0A.419.419,0,0,1,27.12,138.844Z" transform="translate(-17.266 -136.276)" fill="#fff"/>
</svg>
