<svg xmlns="http://www.w3.org/2000/svg" xmlns:xlink="http://www.w3.org/1999/xlink" width="76.609" height="51.796" viewBox="0 0 76.609 51.796">
  <defs>
    <style>
      .cls-1, .cls-2, .cls-5 {
        fill: none;
      }

      .cls-1, .cls-2 {
        stroke-miterlimit: 10;
      }

      .cls-2 {
        stroke: #000;
        stroke-width: 2px;
      }

      .cls-3, .cls-4 {
        stroke: none;
      }

      .cls-5 {
        clip-path: url(#clip);
      }
    </style>
    <clipPath id="clip">
      <use xlink:href="#fill"/>
    </clipPath>
  </defs>
  <g id="brunch" transform="translate(652.029 -294.836)">
    <g id="Group_400" data-name="Group 400" transform="translate(-652.029 294.836)">
      <g id="Path_4155" data-name="Path 4155" class="cls-1" transform="translate(656.898 -293.213)">
        <path class="cls-3" d="M-605.861,303.925a18.906,18.906,0,0,0-18.906,18.907h37.813A18.908,18.908,0,0,0-605.861,303.925Z"/>
        <path class="cls-4" d="M -605.861083984375 305.9249572753906 C -610.3771362304688 305.9249572753906 -614.6226806640625 307.6835632324219 -617.8156127929688 310.8767700195312 C -620.532470703125 313.5938415527344 -622.2106323242188 317.0726318359375 -622.6506958007812 320.8320922851562 L -589.0698852539062 320.8320922851562 C -589.5093994140625 317.0733947753906 -591.1881103515625 313.5946960449219 -593.906494140625 310.8770141601562 C -597.1007080078125 307.6836242675781 -601.3462524414062 305.9249572753906 -605.861083984375 305.9249572753906 M -605.861083984375 303.9249572753906 C -595.42333984375 303.9249572753906 -586.9515380859375 312.3896789550781 -586.9539794921875 322.8320922851562 L -624.7669677734375 322.8320922851562 C -624.7669677734375 312.3896789550781 -616.303466796875 303.9249572753906 -605.861083984375 303.9249572753906 Z"/>
      </g>
      <g id="Path_4156" data-name="Path 4156" class="cls-1" transform="translate(655.888 -290.158)">
        <path class="cls-3" d="M-584.055,321.032h-41.589a4.779,4.779,0,0,0-4.776,4.778,4.777,4.777,0,0,0,4.776,4.776h41.589a4.777,4.777,0,0,0,4.776-4.776A4.779,4.779,0,0,0-584.055,321.032Z"/>
        <path class="cls-4" d="M -625.644287109375 323.031982421875 C -627.1748046875 323.031982421875 -628.4199829101562 324.2781982421875 -628.4199829101562 325.8100280761719 C -628.4199829101562 327.3405456542969 -627.1748046875 328.5857238769531 -625.644287109375 328.5857238769531 L -584.0549926757812 328.5857238769531 C -582.5244750976562 328.5857238769531 -581.279296875 327.3405456542969 -581.279296875 325.8100280761719 C -581.279296875 324.2781982421875 -582.5244750976562 323.031982421875 -584.0549926757812 323.031982421875 L -625.644287109375 323.031982421875 M -625.644287109375 321.031982421875 L -584.0549926757812 321.031982421875 C -581.41845703125 321.031982421875 -579.279296875 323.1734924316406 -579.279296875 325.8100280761719 C -579.279296875 328.446533203125 -581.41845703125 330.5857238769531 -584.0549926757812 330.5857238769531 L -625.644287109375 330.5857238769531 C -628.28076171875 330.5857238769531 -630.4199829101562 328.446533203125 -630.4199829101562 325.8100280761719 C -630.4199829101562 323.1734924316406 -628.28076171875 321.031982421875 -625.644287109375 321.031982421875 Z"/>
      </g>
      <g id="Rectangle_200" data-name="Rectangle 200" class="cls-2" transform="translate(30.543 41.375)">
        <rect id="fill" class="cls-3" width="39.403" height="1.282"/>
        <path class="cls-5" d="M0,0.2819563150405884h39.403167724609375M38.403167724609375,0v1.2819563150405884M39.403167724609375,1h-39.403167724609375M1,1.2819563150405884v-1.2819563150405884"/>
      </g>
      <g id="Path_4157" data-name="Path 4157" class="cls-1" transform="translate(656.708 -288.201)">
        <path class="cls-3" d="M-625.832,336.391a3.024,3.024,0,0,0,3.025,3.023h32.683a3.025,3.025,0,0,0,3.025-3.023v-4.4h-38.733Z"/>
        <path class="cls-4" d="M -590.1238403320312 337.4141845703125 C -589.5584106445312 337.4141845703125 -589.0984497070312 336.9552001953125 -589.0984497070312 336.3910522460938 L -589.0984497070312 333.989013671875 L -623.8319091796875 333.989013671875 L -623.8319091796875 336.3910522460938 C -623.8319091796875 336.9552001953125 -623.3719482421875 337.4141845703125 -622.8065185546875 337.4141845703125 L -590.1238403320312 337.4141845703125 M -590.1238403320312 339.4141845703125 L -622.8065185546875 339.4141845703125 C -624.4777221679688 339.4141845703125 -625.8319091796875 338.0611267089844 -625.8319091796875 336.3910522460938 L -625.8319091796875 331.989013671875 L -587.0984497070312 331.989013671875 L -587.0984497070312 336.3910522460938 C -587.0984497070312 338.0611267089844 -588.4537963867188 339.4141845703125 -590.1238403320312 339.4141845703125 Z"/>
      </g>
      <g id="Path_4158" data-name="Path 4158" class="cls-1" transform="translate(652.029 -294.836)">
        <path class="cls-3" d="M-635.942,297.461a7.235,7.235,0,0,0-2.724,5.667v10.455h-13.363v33.049h22.422V313.583h-6.709V303.127a4.887,4.887,0,0,1,1.885-3.865,9.223,9.223,0,0,1,6.162-2.047l.408-2.314A11.5,11.5,0,0,0-635.942,297.461Z"/>
        <path class="cls-4" d="M -650.0289916992188 315.582763671875 L -650.0289916992188 344.6318969726562 L -631.6072998046875 344.6318969726562 L -631.6072998046875 315.582763671875 L -636.31591796875 315.582763671875 L -638.31591796875 315.582763671875 L -638.6659545898438 315.582763671875 L -650.0289916992188 315.582763671875 M -628.7522583007812 294.8362121582031 C -628.4158325195312 294.8362121582031 -628.115234375 294.8590087890625 -627.8617553710938 294.9019470214844 L -628.2695922851562 297.2155456542969 C -628.4166870117188 297.1883239746094 -628.5977172851562 297.1741638183594 -628.805908203125 297.1741638183594 C -630.1572265625 297.1741943359375 -632.6522216796875 297.7706909179688 -634.4313354492188 299.2627868652344 C -635.6817626953125 300.3117065429688 -636.31591796875 301.6128845214844 -636.31591796875 303.1274108886719 L -636.31591796875 313.582763671875 L -629.6072998046875 313.582763671875 L -629.6072998046875 346.6318969726562 L -652.0289916992188 346.6318969726562 L -652.0289916992188 313.582763671875 L -638.6659545898438 313.582763671875 L -638.6659545898438 303.1274108886719 C -638.6659545898438 300.9163513183594 -637.724365234375 298.9563293457031 -635.9422607421875 297.4606628417969 C -633.671142578125 295.5547485351562 -630.6419677734375 294.8361206054688 -628.7522583007812 294.8362121582031 Z"/>
      </g>
    </g>
  </g>
</svg>
